<svg width="49" height="73" viewBox="0 0 49 73" fill="none" xmlns="http://www.w3.org/2000/svg">
<path d="M38.392 39.8C35.896 38.904 33.304 38.328 30.616 38.072C28.056 37.752 25.432 37.464 22.744 37.208C25.176 37.592 27.672 37.944 30.232 38.264C32.92 38.584 35.448 39.288 37.816 40.376C37.56 40.632 37.304 40.856 37.048 41.048C36.792 41.24 36.536 41.336 36.28 41.336C35.384 41.336 34.52 41.24 33.688 41.048C32.856 40.792 31.96 40.664 31 40.664V39.512C30.68 39.576 30.232 39.608 29.656 39.608C28.056 39.608 26.488 39.384 24.952 38.936C23.416 38.488 21.848 38.264 20.248 38.264C19.416 38.264 18.616 38.36 17.848 38.552V38.936C19.896 39.064 21.976 39.288 24.088 39.608C26.264 39.864 28.472 40.216 30.712 40.664C28.664 40.344 26.456 40.056 24.088 39.8C21.784 39.544 19.608 39.416 17.56 39.416C16.728 39.416 15.928 39.448 15.16 39.512C14.456 39.512 13.752 39.544 13.048 39.608C13.048 40.952 13.08 42.52 13.144 44.312C13.208 46.104 13.336 47.864 13.528 49.592C13.72 51.256 13.944 52.728 14.2 54.008C14.456 55.288 14.776 56.12 15.16 56.504L16.024 58.232C16.792 60.6 19.352 61.784 23.704 61.784C24.664 61.784 25.816 61.656 27.16 61.4C28.504 61.144 29.848 60.856 31.192 60.536C32.6 60.152 33.912 59.832 35.128 59.576C36.408 59.32 37.496 59.192 38.392 59.192C39.288 59.192 39.8 59.32 39.928 59.576C40.056 59.832 40.12 60.184 40.12 60.632C37.432 60.952 34.84 61.432 32.344 62.072C30.168 62.648 28.056 63.096 26.008 63.416C28.056 63.096 30.136 62.712 32.248 62.264C34.744 61.688 37.272 61.24 39.832 60.92C39.704 61.304 39.64 61.56 39.64 61.688C39.64 62.072 39.8 62.392 40.12 62.648L41.464 62.456C41.848 62.392 42.232 62.36 42.616 62.36C43 62.296 43.352 62.2 43.672 62.072C44.824 62.392 45.624 62.744 46.072 63.128C46.584 63.512 46.84 63.928 46.84 64.376C46.84 65.208 46.424 65.784 45.592 66.104C44.824 66.424 44.088 66.936 43.384 67.64H43C41.144 67.64 39.352 67.8 37.624 68.12C35.896 68.376 34.168 68.664 32.44 68.984C30.776 69.304 29.048 69.624 27.256 69.944C25.528 70.2 23.736 70.328 21.88 70.328H20.536H19.96C21.176 70.456 22.488 70.52 23.896 70.52C25.688 70.52 27.352 70.424 28.888 70.232C30.488 70.04 32.024 69.816 33.496 69.56C34.968 69.304 36.376 69.08 37.72 68.888C39.128 68.696 40.536 68.6 41.944 68.6C40.92 69.112 39.672 69.624 38.2 70.136C36.728 70.584 35.096 70.968 33.304 71.288C31.512 71.672 29.656 71.96 27.736 72.152C25.816 72.408 23.928 72.536 22.072 72.536C20.792 72.536 19.544 72.472 18.328 72.344C17.112 72.216 15.8 71.8 14.392 71.096L14.296 70.04C13.4 69.72 12.44 69.144 11.416 68.312C10.456 67.416 9.56 66.488 8.728 65.528C7.896 64.568 7.192 63.672 6.616 62.84C6.04 62.008 5.752 61.464 5.752 61.208L5.464 60.344C4.888 59.128 4.408 57.784 4.024 56.312C3.704 54.84 3.448 53.368 3.256 51.896C3.064 50.36 2.904 48.856 2.776 47.384C2.648 45.912 2.552 44.536 2.488 43.256C2.36 41.144 2.264 39.032 2.2 36.92C2.136 34.744 2.104 32.568 2.104 30.392C2.104 28.216 2.104 26.04 2.104 23.864C2.168 21.624 2.2 19.384 2.2 17.144H1.912C1.592 19.576 1.4 21.912 1.336 24.152C1.336 26.392 1.336 28.632 1.336 30.872V34.616C1.336 39.096 1.56 43.768 2.008 48.632C2.52 53.496 3.768 58.232 5.752 62.84C4.28 60.344 3.352 57.88 2.968 55.448C2.584 52.952 2.232 50.648 1.912 48.536C1.528 45.784 1.24 43.128 1.048 40.568C0.92 38.008 0.856 35.384 0.856 32.696V30.68C0.856 26.968 0.952 23.192 1.144 19.352C1.336 15.512 1.912 11.448 2.872 7.16C2.488 7.16 2.296 6.968 2.296 6.584C2.296 6.2 2.488 5.656 2.872 4.952C3.32 4.248 3.864 3.57599 4.504 2.936C5.144 2.232 5.848 1.656 6.616 1.20799C7.448 0.695997 8.248 0.439999 9.016 0.439999H31.864C34.232 0.887997 36.536 1.272 38.776 1.592C41.08 1.848 43.48 2.04 45.976 2.168L45.88 4.376C45.88 4.76 45.688 5.08 45.304 5.336C44.984 5.528 44.216 5.62399 43 5.62399C42.616 5.62399 42.136 5.62399 41.56 5.62399C41.048 5.56 40.472 5.496 39.832 5.432V6.296C42.456 6.872 44.504 7.576 45.976 8.408C47.512 9.24 48.28 10.04 48.28 10.808C48.28 11.704 47.416 12.248 45.688 12.44C44.024 12.632 41.784 12.728 38.968 12.728C35.384 12.728 31.544 12.728 27.448 12.728C23.416 12.664 19.512 12.472 15.736 12.152H14.104C13.784 14.584 13.56 17.08 13.432 19.64C13.304 22.2 13.208 24.824 13.144 27.512C14.168 27.512 15.16 27.48 16.12 27.416C17.144 27.288 18.2 27.224 19.288 27.224C20.184 27.224 21.208 27.32 22.36 27.512C23.576 27.64 24.824 27.832 26.104 28.088C27.448 28.344 28.76 28.664 30.04 29.048C31.384 29.368 32.6 29.72 33.688 30.104C33.88 30.168 34.104 30.2 34.36 30.2H35.992C36.824 30.2 37.368 30.328 37.624 30.584C37.944 30.84 38.104 31.352 38.104 32.12C37.016 32.12 35.992 32.056 35.032 31.928C34.072 31.8 33.144 31.672 32.248 31.544C33.144 31.864 34.072 32.12 35.032 32.312C35.992 32.44 37.016 32.568 38.104 32.696C37.976 33.016 37.88 33.304 37.816 33.56C37.816 33.816 37.816 34.04 37.816 34.232C38.456 34.36 38.872 34.68 39.064 35.192C39.32 35.64 39.448 36.152 39.448 36.728C39.448 37.56 39.256 38.232 38.872 38.744C38.552 39.192 38.392 39.544 38.392 39.8ZM4.6 50.648C4.856 52.184 5.144 53.848 5.464 55.64C5.848 57.368 6.392 59.096 7.096 60.824C7.864 62.488 8.888 64.056 10.168 65.528C11.192 66.744 12.536 67.768 14.2 68.6C12.28 67.576 10.712 66.168 9.496 64.376C8.088 62.2 6.968 59.768 6.136 57.08C5.368 54.392 4.792 51.544 4.408 48.536C4.088 45.528 3.832 42.648 3.64 39.896C3.704 41.624 3.8 43.384 3.928 45.176C4.056 46.968 4.28 48.792 4.6 50.648ZM28.12 31.064C29.208 31.256 30.36 31.416 31.576 31.544C30.424 31.224 29.336 31 28.312 30.872C27.288 30.68 26.264 30.456 25.24 30.2C26.072 30.584 27.032 30.872 28.12 31.064ZM12.376 70.424C11.544 70.04 10.808 69.592 10.168 69.08C9.72 68.696 9.304 68.312 8.92 67.928C9.304 68.312 9.752 68.664 10.264 68.984C10.968 69.496 11.672 69.976 12.376 70.424ZM15.256 69.08L14.392 68.696L15.256 69.08Z" fill="url(#paint0_linear_12_20)"/>
<defs>
<linearGradient id="paint0_linear_12_20" x1="-5" y1="36" x2="42.6757" y2="36" gradientUnits="userSpaceOnUse">
<stop stop-color="#D13E35"/>
<stop offset="1" stop-color="#B54CDA"/>
</linearGradient>
</defs>
</svg>
